<svg viewBox="0 0 66.9775 51.9721" xmlns="http://www.w3.org/2000/svg" xmlns:xlink="http://www.w3.org/1999/xlink" width="66.977539" height="51.972107" fill="none" customFrame="#000000">
	<defs>
		<clipPath id="clipPath_0">
			<rect width="66.977158" height="51.971985" x="0.000000" y="0.000000" fill="rgb(255,255,255)" />
		</clipPath>
		<clipPath id="clipPath_1">
			<rect width="66.977158" height="51.971985" x="0.000000" y="0.000000" fill="rgb(255,255,255)" />
		</clipPath>
	</defs>
	<rect id="Frame 65" width="66.977821" height="51.972095" x="0.000000" y="0.000000" fill="rgb(255,255,255)" fill-opacity="0" />
	<g id="Frame 11" customFrame="url(#clipPath_0)">
		<rect id="Frame 11" width="66.977158" height="51.971985" x="0.000000" y="0.000000" fill="rgb(255,255,255)" fill-opacity="0" />
		<g id="Group 8906">
			<g id="Mastercard-logo 1" clip-path="url(#clipPath_1)" customFrame="url(#clipPath_1)">
				<rect id="Mastercard-logo 1" width="66.977158" height="51.971985" x="0.000000" y="0.000000" fill="rgb(255,255,255)" fill-opacity="0" />
			</g>
		</g>
	</g>
	<g id="g15">
		<path id="XMLID_1775_" d="M12.1877 51.8571L12.1877 48.4077C12.1877 47.0854 11.3829 46.223 10.0031 46.223C9.31319 46.223 8.56581 46.453 8.04839 47.2003C7.64595 46.5679 7.07103 46.223 6.20866 46.223C5.63375 46.223 5.05885 46.3955 4.59892 47.0279L4.59892 46.338L3.3916 46.338L3.3916 51.8571L4.59892 51.8571L4.59892 48.8101C4.59892 47.8327 5.11633 47.3728 5.92121 47.3728C6.72608 47.3728 7.12852 47.8902 7.12852 48.8101L7.12852 51.8571L8.33584 51.8571L8.33584 48.8101C8.33584 47.8327 8.91075 47.3728 9.65813 47.3728C10.463 47.3728 10.8654 47.8902 10.8654 48.8101L10.8654 51.8571L12.1877 51.8571ZM30.0675 46.338L28.1128 46.338L28.1128 44.6707L26.9055 44.6707L26.9055 46.338L25.8131 46.338L25.8131 47.4303L26.9055 47.4303L26.9055 49.9599C26.9055 51.2247 27.4229 51.9721 28.8027 51.9721C29.3201 51.9721 29.895 51.7996 30.2974 51.5697L29.9525 50.5348C29.6075 50.7648 29.2051 50.8223 28.9177 50.8223C28.3427 50.8223 28.1128 50.4773 28.1128 49.9024L28.1128 47.4303L30.0675 47.4303L30.0675 46.338ZM40.3009 46.223C39.611 46.223 39.1511 46.5679 38.8636 47.0279L38.8636 46.338L37.6563 46.338L37.6563 51.8571L38.8636 51.8571L38.8636 48.7526C38.8636 47.8328 39.2661 47.3153 40.0134 47.3153C40.2434 47.3153 40.5309 47.3728 40.7608 47.4303L41.1058 46.2805C40.8758 46.223 40.5309 46.223 40.3009 46.223ZM24.8358 46.7979C24.2609 46.3955 23.456 46.223 22.5936 46.223C21.2138 46.223 20.294 46.9129 20.294 48.0052C20.294 48.9251 20.9839 49.4425 22.1912 49.615L22.7661 49.6725C23.3985 49.7874 23.7435 49.9599 23.7435 50.2474C23.7435 50.6498 23.2835 50.9373 22.4786 50.9373C21.6738 50.9373 21.0414 50.6498 20.6389 50.3624L20.064 51.2822C20.6964 51.7421 21.5588 51.9721 22.4212 51.9721C24.0309 51.9721 24.9508 51.2247 24.9508 50.1899C24.9508 49.2125 24.2034 48.6951 23.0536 48.5226L22.4786 48.4652C21.9612 48.4077 21.5588 48.2927 21.5588 47.9477C21.5588 47.5453 21.9612 47.3153 22.5936 47.3153C23.2835 47.3153 23.9734 47.6028 24.3184 47.7753L24.8358 46.7979ZM56.9158 46.223C56.2259 46.223 55.766 46.5679 55.4786 47.0279L55.4786 46.338L54.2712 46.338L54.2712 51.8571L55.4786 51.8571L55.4786 48.7526C55.4786 47.8328 55.881 47.3153 56.6284 47.3153C56.8584 47.3153 57.1458 47.3728 57.3758 47.4303L57.7207 46.2805C57.4907 46.223 57.1458 46.223 56.9158 46.223ZM41.5082 49.0975C41.5082 50.7648 42.658 51.9721 44.4403 51.9721C45.2451 51.9721 45.82 51.7996 46.395 51.3397L45.82 50.3624C45.3601 50.7073 44.9002 50.8798 44.3828 50.8798C43.4054 50.8798 42.7155 50.1899 42.7155 49.0975C42.7155 48.0627 43.4054 47.3728 44.3828 47.3153C44.9002 47.3153 45.3601 47.4878 45.82 47.8327L46.395 46.8554C45.82 46.3955 45.2451 46.223 44.4403 46.223C42.658 46.223 41.5082 47.4303 41.5082 49.0975ZM52.6615 49.0975L52.6615 46.338L51.4542 46.338L51.4542 47.0279C51.0517 46.5105 50.4768 46.223 49.7295 46.223C48.1772 46.223 46.9699 47.4303 46.9699 49.0975C46.9699 50.7648 48.1772 51.9721 49.7295 51.9721C50.5343 51.9721 51.1092 51.6846 51.4542 51.1672L51.4542 51.8571L52.6615 51.8571L52.6615 49.0975ZM48.2347 49.0975C48.2347 48.1202 48.8671 47.3153 49.9019 47.3153C50.8793 47.3153 51.5692 48.0627 51.5692 49.0975C51.5692 50.0749 50.8793 50.8798 49.9019 50.8798C48.8671 50.8223 48.2347 50.0749 48.2347 49.0975ZM33.8044 46.223C32.1947 46.223 31.0448 47.3728 31.0448 49.0975C31.0448 50.8223 32.1947 51.9721 33.8619 51.9721C34.6668 51.9721 35.4716 51.7421 36.104 51.2247L35.5291 50.3624C35.0692 50.7073 34.4943 50.9373 33.9194 50.9373C33.172 50.9373 32.4246 50.5923 32.2521 49.615L36.334 49.615C36.334 49.4425 36.334 49.3275 36.334 49.155C36.3915 47.3728 35.3567 46.223 33.8044 46.223ZM33.8044 47.2578C34.5518 47.2578 35.0692 47.7178 35.1842 48.5801L32.3096 48.5801C32.4246 47.8327 32.942 47.2578 33.8044 47.2578ZM63.7573 49.0975L63.7573 44.1533L62.55 44.1533L62.55 47.0279C62.1475 46.5105 61.5726 46.223 60.8252 46.223C59.273 46.223 58.0657 47.4303 58.0657 49.0975C58.0657 50.7648 59.273 51.9721 60.8252 51.9721C61.6301 51.9721 62.205 51.6846 62.55 51.1672L62.55 51.8571L63.7573 51.8571L63.7573 49.0975ZM59.3305 49.0975C59.3305 48.1202 59.9629 47.3153 60.9977 47.3153C61.975 47.3153 62.665 48.0627 62.665 49.0975C62.665 50.0749 61.975 50.8798 60.9977 50.8798C59.9629 50.8223 59.3305 50.0749 59.3305 49.0975ZM18.9717 49.0975L18.9717 46.338L17.7644 46.338L17.7644 47.0279C17.3619 46.5105 16.787 46.223 16.0396 46.223C14.4874 46.223 13.2801 47.4303 13.2801 49.0975C13.2801 50.7648 14.4874 51.9721 16.0396 51.9721C16.8445 51.9721 17.4194 51.6846 17.7644 51.1672L17.7644 51.8571L18.9717 51.8571L18.9717 49.0975ZM14.4874 49.0975C14.4874 48.1202 15.1198 47.3153 16.1546 47.3153C17.132 47.3153 17.8219 48.0627 17.8219 49.0975C17.8219 50.0749 17.132 50.8798 16.1546 50.8798C15.1198 50.8223 14.4874 50.0749 14.4874 49.0975Z" fill="rgb(0,0,0)" fill-rule="nonzero" />
	</g>
	<g id="XMLID_328_">
		<path id="rect19" d="M42.5423 4.42676L24.4326 4.42676L24.4326 36.9667L42.5423 36.9667L42.5423 4.42676Z" fill="rgb(255,95,0)" fill-rule="evenodd" />
		<path id="XMLID_330_" d="M25.5836 20.6968C25.5836 14.0853 28.6881 8.22124 33.4598 4.42682C29.9529 1.66725 25.5261 0 20.6968 0C9.25607 0 0 9.25607 0 20.6968C0 32.1375 9.25607 41.3936 20.6968 41.3936C25.5261 41.3936 29.9529 39.7264 33.4598 36.9668C28.6881 33.2299 25.5836 27.3083 25.5836 20.6968Z" fill="rgb(235,0,27)" fill-rule="nonzero" />
		<path id="path22" d="M66.9774 20.6968C66.9774 32.1375 57.7213 41.3936 46.2806 41.3936C41.4514 41.3936 37.0245 39.7264 33.5176 36.9668C38.3468 33.1724 41.3939 27.3083 41.3939 20.6968C41.3939 14.0853 38.2893 8.22124 33.5176 4.42682C37.0245 1.66725 41.4514 0 46.2806 0C57.7213 0 66.9774 9.31356 66.9774 20.6968Z" fill="rgb(247,158,27)" fill-rule="nonzero" />
	</g>
</svg>
