<svg width="10" height="10" viewBox="0 0 10 10" fill="none" xmlns="http://www.w3.org/2000/svg">
<path d="M9.18396 1.32095C9.09195 1.07162 8.94516 0.845947 8.75443 0.660706C8.56918 0.469971 8.34366 0.323181 8.09418 0.231171C7.89185 0.152588 7.58789 0.0590515 7.02805 0.0335693C6.42242 0.00595094 6.24084 0 4.70764 0C3.17429 0 2.99271 0.00579835 2.38724 0.0334168C1.82739 0.0590515 1.52328 0.152588 1.32111 0.231171C1.07162 0.323181 0.845947 0.469971 0.660858 0.660706C0.470123 0.845947 0.323334 1.07147 0.231171 1.32095C0.152588 1.52329 0.0590515 1.82739 0.0335693 2.38724C0.00595094 2.99271 0 3.17429 0 4.70764C0 6.24085 0.00595094 6.42243 0.0335693 7.02805C0.0590515 7.58789 0.152588 7.89185 0.231171 8.09418C0.323334 8.34366 0.469971 8.56919 0.660706 8.75443C0.845947 8.94516 1.07147 9.09195 1.32095 9.18396C1.52328 9.2627 1.82739 9.35623 2.38724 9.38172C2.99271 9.40933 3.17413 9.41513 4.70749 9.41513C6.241 9.41513 6.42258 9.40933 7.02789 9.38172C7.58774 9.35623 7.89185 9.2627 8.09418 9.18396C8.59497 8.99079 8.99078 8.59497 9.18396 8.09418C9.26254 7.89185 9.35608 7.58789 9.38171 7.02805C9.40933 6.42243 9.41513 6.24085 9.41513 4.70764C9.41513 3.17429 9.40933 2.99271 9.38171 2.38724C9.35623 1.82739 9.2627 1.52329 9.18396 1.32095ZM4.70764 7.6561C3.07907 7.6561 1.75888 6.33606 1.75888 4.70749C1.75888 3.07892 3.07907 1.75888 4.70764 1.75888C6.33606 1.75888 7.65625 3.07892 7.65625 4.70749C7.65625 6.33606 6.33606 7.6561 4.70764 7.6561ZM7.77283 2.33139C7.39227 2.33139 7.08374 2.02286 7.08374 1.6423C7.08374 1.26175 7.39227 0.953217 7.77283 0.953217C8.15338 0.953217 8.46191 1.26175 8.46191 1.6423C8.46176 2.02286 8.15338 2.33139 7.77283 2.33139Z" fill="white"/>
</svg>
