<svg width="12" height="10" viewBox="0 0 12 10" fill="none" xmlns="http://www.w3.org/2000/svg">
<path d="M11.6506 1.12089C11.222 1.31091 10.7611 1.43943 10.2776 1.49683C10.7712 1.2011 11.15 0.733175 11.3288 0.174693C10.867 0.448675 10.3552 0.647433 9.81096 0.754566C9.37494 0.290204 8.75371 0 8.06581 0C6.74599 0 5.67555 1.07044 5.67555 2.39026C5.67555 2.57761 5.69677 2.75997 5.73776 2.93502C3.75126 2.83537 1.98989 1.88383 0.810895 0.437266C0.605185 0.790217 0.487179 1.2011 0.487179 1.63908C0.487179 2.46816 0.909471 3.20009 1.55049 3.62862C1.15885 3.61632 0.790039 3.50883 0.467927 3.32932C0.467749 3.33948 0.467748 3.34964 0.467748 3.35963C0.467748 4.51777 1.29201 5.48375 2.38527 5.70318C2.18491 5.75809 1.97331 5.78714 1.75566 5.78714C1.60129 5.78714 1.45173 5.77235 1.30592 5.74454C1.61003 6.69394 2.49258 7.38505 3.53878 7.40448C2.72057 8.04567 1.69006 8.42768 0.56989 8.42768C0.377372 8.42768 0.186636 8.41644 0 8.39416C1.05725 9.07261 2.31397 9.46817 3.66373 9.46817C8.06029 9.46817 10.4646 5.826 10.4646 2.66709C10.4646 2.56353 10.4623 2.46032 10.4577 2.358C10.9251 2.02109 11.3302 1.60022 11.6506 1.12089Z" fill="#305F64"/>
</svg>
