<svg viewBox="0 0 66.9775 41.3936" xmlns="http://www.w3.org/2000/svg" xmlns:xlink="http://www.w3.org/1999/xlink" width="66.977539" height="41.393616" fill="none" customFrame="#000000">
	<g id="XMLID_328_">
		<path id="rect19" d="M42.5423 4.42676L24.4326 4.42676L24.4326 36.9667L42.5423 36.9667L42.5423 4.42676Z" fill="rgb(255,95,0)" fill-rule="evenodd" />
		<path id="XMLID_330_" d="M25.5836 20.6968C25.5836 14.0853 28.6881 8.22124 33.4598 4.42682C29.9529 1.66725 25.5261 0 20.6968 0C9.25607 0 0 9.25607 0 20.6968C0 32.1375 9.25607 41.3936 20.6968 41.3936C25.5261 41.3936 29.9529 39.7264 33.4598 36.9668C28.6881 33.2299 25.5836 27.3083 25.5836 20.6968Z" fill="rgb(235,0,27)" fill-rule="nonzero" />
		<path id="path22" d="M66.9774 20.6968C66.9774 32.1375 57.7213 41.3936 46.2806 41.3936C41.4514 41.3936 37.0245 39.7264 33.5176 36.9668C38.3468 33.1724 41.3939 27.3083 41.3939 20.6968C41.3939 14.0853 38.2893 8.22124 33.5176 4.42682C37.0245 1.66725 41.4514 0 46.2806 0C57.7213 0 66.9774 9.31356 66.9774 20.6968Z" fill="rgb(247,158,27)" fill-rule="nonzero" />
	</g>
</svg>
